<svg xmlns="http://www.w3.org/2000/svg" version="1.1" xmlns:xlink="http://www.w3.org/1999/xlink" xmlns:svgjs="http://svgjs.com/svgjs" width="512" height="512" x="0" y="0" viewBox="0 0 64 64" style="enable-background:new 0 0 512 512" xml:space="preserve" class=""><g><path d="m56.544 20.56-23-13.8a3 3 0 0 0-3.087 0l-23 13.8A3.014 3.014 0 0 0 6 23.132V53a5.006 5.006 0 0 0 5 5h11a3 3 0 0 0 3-3V42a1 1 0 0 1 1-1h12a1 1 0 0 1 1 1v13a3 3 0 0 0 3 3h11a5.006 5.006 0 0 0 5-5V23.132a3.014 3.014 0 0 0-1.456-2.572ZM56 53a3 3 0 0 1-3 3H42a1 1 0 0 1-1-1V42a3 3 0 0 0-3-3H26a3 3 0 0 0-3 3v13a1 1 0 0 1-1 1H11a3 3 0 0 1-3-3V23.132a1 1 0 0 1 .485-.857l23-13.8a1 1 0 0 1 1.031 0l23 13.8a1 1 0 0 1 .485.857Z" fill="#000000" data-original="#000000" class=""></path></g></svg>