<svg xmlns="http://www.w3.org/2000/svg" version="1.1" xmlns:xlink="http://www.w3.org/1999/xlink" xmlns:svgjs="http://svgjs.com/svgjs" width="512" height="512" x="0" y="0" viewBox="0 0 512 511" style="enable-background:new 0 0 512 512" xml:space="preserve" class=""><g><path d="M120.656 512.477a38.866 38.866 0 0 1-20.761-6.008 38.872 38.872 0 0 1-18.118-31.66l-1.261-41.391C28.609 386.875 0 321.528 0 249.426c0-68.817 26.379-132.102 74.27-178.2C121.66 25.618 186.2.5 256 .5s134.34 25.117 181.73 70.727C485.621 117.324 512 180.609 512 249.426c0 68.812-26.379 132.097-74.27 178.195-47.39 45.61-111.93 70.73-181.73 70.73-25.164 0-49.79-3.253-73.195-9.667l-46.465 20.5a39.028 39.028 0 0 1-15.684 3.293zM256 40.5c-123.14 0-216 89.816-216 208.926 0 60.668 23.957 115.511 67.457 154.426 8.023 7.226 12.629 17.015 13.016 27.609l.004.125 1.234 40.332 45.3-19.988c8.157-3.59 17.356-4.282 25.923-1.946 20.132 5.555 41.332 8.364 63.066 8.364 123.14 0 216-89.817 216-208.922C472 130.316 379.14 40.5 256 40.5zM130.137 331.129l74.746-57.629c5.05-3.79 12.004-3.84 17.101-.047l55.309 42.992c16.578 12.371 40.305 8.008 51.355-9.433l69.52-110.242c6.715-10.524-6.336-22.418-16.293-14.883l-74.71 56.613a14.273 14.273 0 0 1-17.103.047l-55.308-41.988c-16.578-12.372-40.305-8.012-51.356 9.43l-69.554 110.253c-6.715 10.524 6.336 22.422 16.293 14.887zm0 0" fill="#000000" data-original="#000000" class=""></path></g></svg>