<svg xmlns="http://www.w3.org/2000/svg" version="1.1" xmlns:xlink="http://www.w3.org/1999/xlink" xmlns:svgjs="http://svgjs.com/svgjs" width="512" height="512" x="0" y="0" viewBox="0 0 22 22" style="enable-background:new 0 0 512 512" xml:space="preserve" class=""><g><path d="M-.013 8v9a5.002 5.002 0 0 0 5 5h12a5.002 5.002 0 0 0 5-5V8zm14.49 6.87-6 3.38a.947.947 0 0 1-.49.13 1.014 1.014 0 0 1-1-1v-6.76a1.004 1.004 0 0 1 1.49-.87l6 3.38a.997.997 0 0 1 0 1.74zM6.097 6h-6.11V5A4.99 4.99 0 0 1 2.257.81l1.19 1.62zM15.107 6h-6.52l-2.96-4L4.187.07a4.25 4.25 0 0 1 .8-.07h5.72l1.46 2zM21.987 5v1h-4.4l-2.95-4-1.47-2h3.82a5.002 5.002 0 0 1 5 5z" fill="#000000" data-original="#000000" class=""></path></g></svg>