<svg xmlns="http://www.w3.org/2000/svg" version="1.1" xmlns:xlink="http://www.w3.org/1999/xlink" xmlns:svgjs="http://svgjs.com/svgjs" width="512" height="512" x="0" y="0" viewBox="0 0 512 512" style="enable-background:new 0 0 512 512" xml:space="preserve" class=""><g><path d="M416.78 0H95.22C42.657.061.061 42.657 0 95.22v321.56c.061 52.563 42.657 95.159 95.22 95.22h321.56c52.563-.061 95.159-42.657 95.22-95.22V95.22C511.939 42.657 469.343.061 416.78 0zm59.875 95.22v30.871h-89.539L320.15 35.345h96.631c33.052.037 59.837 26.822 59.874 59.875zM276.222 35.345l66.966 90.746h-107.41l-66.966-90.746h107.41zM35.345 95.22c.037-33.052 26.822-59.837 59.875-59.875h29.665l66.966 90.746H35.345V95.22zM416.78 476.655H95.22c-33.052-.037-59.837-26.822-59.875-59.875V161.437h441.31V416.78c-.038 33.052-26.823 59.837-59.875 59.875z" fill="#000000" data-original="#000000" class=""></path><path d="m350.289 303.74-139.815-80.722c-8.453-4.88-19.261-1.984-24.141 6.469a17.675 17.675 0 0 0-2.368 8.837v161.445c0 9.76 7.912 17.673 17.672 17.673 3.102 0 6.15-.816 8.837-2.368l139.815-80.723c8.453-4.88 11.349-15.688 6.469-24.141a17.677 17.677 0 0 0-6.469-6.47zM219.31 369.159V268.933l86.798 50.112-86.798 50.114z" fill="#000000" data-original="#000000" class=""></path></g></svg>