<svg xmlns="http://www.w3.org/2000/svg" version="1.1" xmlns:xlink="http://www.w3.org/1999/xlink" xmlns:svgjs="http://svgjs.com/svgjs" width="512" height="512" x="0" y="0" viewBox="0 0 511.999 511.999" style="enable-background:new 0 0 512 512" xml:space="preserve" class=""><g><path d="M509.638 40.746a17.62 17.62 0 0 0-15.259-8.81H17.62C7.889 31.936 0 39.824 0 49.555a17.62 17.62 0 0 0 7.391 14.347l206.776 147.435 24.293 252.791c.931 9.687 9.538 16.784 19.225 15.853a17.62 17.62 0 0 0 13.573-8.729l238.38-412.886a17.618 17.618 0 0 0 0-17.62zM72.682 67.176h355.939l-196.68 113.553L72.682 67.176zm195.589 338.771-18.71-194.699L446.242 97.695 268.271 405.947z" fill="#000000" data-original="#000000" class=""></path></g></svg>